<?xml version="1.0" encoding="utf-8"?>
<!-- Generator: Adobe Illustrator 15.0.0, SVG Export Plug-In . SVG Version: 6.00 Build 0)  -->
<!DOCTYPE svg PUBLIC "-//W3C//DTD SVG 1.1//EN" "http://www.w3.org/Graphics/SVG/1.1/DTD/svg11.dtd">
<svg version="1.1" id="Layer_1" xmlns="http://www.w3.org/2000/svg" xmlns:xlink="http://www.w3.org/1999/xlink" x="0px" y="0px"
	 width="32px" height="32px" viewBox="0 0 32 32" enable-background="new 0 0 32 32" xml:space="preserve">
<path fill="none" stroke="#000000" stroke-width="1.5" stroke-linecap="round" stroke-linejoin="round" stroke-miterlimit="10" d="
	M18.566,21.797h-4.638c-1.919,0-0.727-1.623-1.533-2.617c-1.325-1.637-2.06-2.656-2.06-4.468c0-3.436,2.881-5.274,5.658-5.274l0,0
	c2.776,0,5.521,1.61,5.521,5.274c0,1.812-0.736,2.832-2.062,4.468"/>
<path fill="none" stroke="#000000" stroke-width="1.5" stroke-linecap="round" stroke-linejoin="round" stroke-miterlimit="10" d="
	M14.317,12.365c0,0-2.048,2.618,0,4.938"/>
<line fill="none" stroke="#000000" stroke-width="1.5" stroke-linecap="round" stroke-linejoin="round" stroke-miterlimit="10" x1="13.407" y1="23.994" x2="18.438" y2="23.994"/>
<line fill="none" stroke="#000000" stroke-width="1.5" stroke-linecap="round" stroke-linejoin="round" stroke-miterlimit="10" x1="13.836" y1="26.076" x2="18.014" y2="26.076"/>
<line fill="none" stroke="#000000" stroke-width="1.5" stroke-linecap="round" stroke-linejoin="round" stroke-miterlimit="10" x1="15.925" y1="4.924" x2="15.925" y2="6.76"/>
<line fill="none" stroke="#000000" stroke-width="1.5" stroke-linecap="round" stroke-linejoin="round" stroke-miterlimit="10" x1="9.146" y1="7.617" x2="10.444" y2="8.916"/>
<line fill="none" stroke="#000000" stroke-width="1.5" stroke-linecap="round" stroke-linejoin="round" stroke-miterlimit="10" x1="22.854" y1="7.617" x2="21.557" y2="8.916"/>
</svg>
