<?xml version="1.0" encoding="utf-8"?>
<!-- Generator: Adobe Illustrator 15.0.0, SVG Export Plug-In . SVG Version: 6.00 Build 0)  -->
<!DOCTYPE svg PUBLIC "-//W3C//DTD SVG 1.1//EN" "http://www.w3.org/Graphics/SVG/1.1/DTD/svg11.dtd">
<svg version="1.1" id="Layer_1" xmlns="http://www.w3.org/2000/svg" xmlns:xlink="http://www.w3.org/1999/xlink" x="0px" y="0px"
	 width="32px" height="32px" viewBox="0 0 32 32" enable-background="new 0 0 32 32" xml:space="preserve">
<g>
	<path fill="none" stroke="#000000" stroke-width="1.5" stroke-linecap="round" stroke-linejoin="round" stroke-miterlimit="10" d="
		M5.47,9.187c0,0,2.772-2.772,4.738-4.737c1.966-1.967,3.85-1.736,3.85-1.736s0.231,1.885-1.735,3.851L9.311,9.577"/>
	<path fill="none" stroke="#000000" stroke-width="1.5" stroke-linecap="round" stroke-linejoin="round" stroke-miterlimit="10" d="
		M6.93,9.569h9.683c4.123,0,5.857,2.219,5.857,2.219s-1.734,2.22-5.857,2.22H11.59"/>
	<path fill="none" stroke="#000000" stroke-width="1.5" stroke-linecap="round" stroke-linejoin="round" stroke-miterlimit="10" d="
		M19.529,21.946l1.947-2.604c0,0,0.734,2.51,3.262,0.987c1.525-0.918,1.117-2.718,1.117-2.718l2.768-0.982l1.611,1.596l-1.572,3.18
		l-6.766,4.775"/>
	<path fill="none" stroke="#000000" stroke-width="1.5" stroke-linecap="round" stroke-linejoin="round" stroke-miterlimit="10" d="
		M20.867,28.269L20.867,28.269c-1.369,1.369-3.613,1.369-4.984,0L2.792,15.176c-1.37-1.371-1.37-3.613,0-4.983
		c1.37-1.371,3.613-1.371,4.983,0l13.091,13.091C22.238,24.655,22.238,26.898,20.867,28.269z"/>
</g>
</svg>
